<svg xmlns:xlink="http://www.w3.org/1999/xlink" width="579" xmlns="http://www.w3.org/2000/svg" height="579" id="screenshot-cee4d184-d5f6-8002-8001-8bc2fe823e14" viewBox="0 0 579 579" style="-webkit-print-color-adjust: exact;" fill="none" version="1.1"><g id="shape-cee4d184-d5f6-8002-8001-8bc2fe823e14"><defs><clipPath id="frame-clip-cee4d184-d5f6-8002-8001-8bc2fe823e14-f77870fa-31e6-80cc-8001-8bc344a5dba6" class="frame-clip"><rect rx="0" ry="0" x="0" y="0" width="579.0000079423189" height="579.0000079423189" transform="matrix(1,0,0,1,0,0)"/></clipPath></defs><g clip-path="url(#frame-clip-cee4d184-d5f6-8002-8001-8bc2fe823e14-f77870fa-31e6-80cc-8001-8bc344a5dba6)"><clipPath id="frame-clip-cee4d184-d5f6-8002-8001-8bc2fe823e14-f77870fa-31e6-80cc-8001-8bc344a5dba6" class="frame-clip"><rect rx="0" ry="0" x="0" y="0" width="579.0000079423189" height="579.0000079423189" transform="matrix(1,0,0,1,0,0)"/></clipPath><g id="fills-cee4d184-d5f6-8002-8001-8bc2fe823e14"><rect rx="0" ry="0" x="0" y="0" transform="matrix(1,0,0,1,0,0)" width="579.0000079423189" height="579.0000079423189" class="frame-background"/></g><g class="frame-children"><g id="shape-cee4d184-d5f6-8002-8001-8bbbd557e049" rx="0" ry="0"><g id="shape-cee4d184-d5f6-8002-8001-8bbb6cd2cb12"><g id="fills-cee4d184-d5f6-8002-8001-8bbb6cd2cb12"><rect rx="50" ry="50" x="23.000003971159458" y="23.00000397163211" transform="matrix(1,0,0,1,0,0)" width="533" height="532.9999999990687" style="opacity: 1; fill: rgb(0, 0, 0); fill-opacity: 1;"/></g></g><g id="shape-cee4d184-d5f6-8002-8001-8bbc40aa62d0" rx="0" ry="0"><g id="shape-cee4d184-d5f6-8002-8001-8bbc046cfabb"><g id="fills-cee4d184-d5f6-8002-8001-8bbc046cfabb"><path rx="0" ry="0" d="M38,36L541,36"/></g><g id="strokes-cee4d184-d5f6-8002-8001-8bbc046cfabb"><g class="stroke-shape"><path rx="0" ry="0" d="M38,36L541,36" style="fill: none; stroke-width: 2; stroke: rgb(255, 255, 255); stroke-opacity: 0.2;"/></g></g></g><g id="shape-cee4d184-d5f6-8002-8001-8bbc286fe82b"><g id="fills-cee4d184-d5f6-8002-8001-8bbc286fe82b"><path rx="0" ry="0" d="M34.97,539.606L34.97,39.138"/></g><g id="strokes-cee4d184-d5f6-8002-8001-8bbc286fe82b"><g class="stroke-shape"><path rx="0" ry="0" d="M34.97,539.606L34.97,39.138" style="fill: none; stroke-width: 2; stroke: rgb(255, 255, 255); stroke-opacity: 0.2;"/></g></g></g><g id="shape-cee4d184-d5f6-8002-8001-8bbc172414e0"><g id="fills-cee4d184-d5f6-8002-8001-8bbc172414e0"><path rx="0" ry="0" d="M23,99L556,99"/></g><g id="strokes-cee4d184-d5f6-8002-8001-8bbc172414e0"><g class="stroke-shape"><path rx="0" ry="0" d="M23,99L556,99" style="fill: none; stroke-width: 2; stroke: rgb(255, 255, 255); stroke-opacity: 0.2;"/></g></g></g><g id="shape-cee4d184-d5f6-8002-8001-8bbc286fe82c"><g id="fills-cee4d184-d5f6-8002-8001-8bbc286fe82c"><path rx="0" ry="0" d="M98.955,555.969L98.955,23"/></g><g id="strokes-cee4d184-d5f6-8002-8001-8bbc286fe82c"><g class="stroke-shape"><path rx="0" ry="0" d="M98.955,555.969L98.955,23" style="fill: none; stroke-width: 2; stroke: rgb(255, 255, 255); stroke-opacity: 0.2;"/></g></g></g><g id="shape-cee4d184-d5f6-8002-8001-8bbc1dd4a658"><g id="fills-cee4d184-d5f6-8002-8001-8bbc1dd4a658"><path rx="0" ry="0" d="M23,162L556,162"/></g><g id="strokes-cee4d184-d5f6-8002-8001-8bbc1dd4a658"><g class="stroke-shape"><path rx="0" ry="0" d="M23,162L556,162" style="fill: none; stroke-width: 2; stroke: rgb(255, 255, 255); stroke-opacity: 0.2;"/></g></g></g><g id="shape-cee4d184-d5f6-8002-8001-8bbc286fe82d"><g id="fills-cee4d184-d5f6-8002-8001-8bbc286fe82d"><path rx="0" ry="0" d="M161.957,555.969L161.957,23"/></g><g id="strokes-cee4d184-d5f6-8002-8001-8bbc286fe82d"><g class="stroke-shape"><path rx="0" ry="0" d="M161.957,555.969L161.957,23" style="fill: none; stroke-width: 2; stroke: rgb(255, 255, 255); stroke-opacity: 0.2;"/></g></g></g><g id="shape-cee4d184-d5f6-8002-8001-8bbc1f00b9e7"><g id="fills-cee4d184-d5f6-8002-8001-8bbc1f00b9e7"><path rx="0" ry="0" d="M23,226L556,226"/></g><g id="strokes-cee4d184-d5f6-8002-8001-8bbc1f00b9e7"><g class="stroke-shape"><path rx="0" ry="0" d="M23,226L556,226" style="fill: none; stroke-width: 2; stroke: rgb(255, 255, 255); stroke-opacity: 0.2;"/></g></g></g><g id="shape-cee4d184-d5f6-8002-8001-8bbc286fe82e"><g id="fills-cee4d184-d5f6-8002-8001-8bbc286fe82e"><path rx="0" ry="0" d="M225.958,555.969L225.958,23"/></g><g id="strokes-cee4d184-d5f6-8002-8001-8bbc286fe82e"><g class="stroke-shape"><path rx="0" ry="0" d="M225.958,555.969L225.958,23" style="fill: none; stroke-width: 2; stroke: rgb(255, 255, 255); stroke-opacity: 0.2;"/></g></g></g><g id="shape-cee4d184-d5f6-8002-8001-8bbc20bc4310"><g id="fills-cee4d184-d5f6-8002-8001-8bbc20bc4310"><path rx="0" ry="0" d="M23,289L556,289"/></g><g id="strokes-cee4d184-d5f6-8002-8001-8bbc20bc4310"><g class="stroke-shape"><path rx="0" ry="0" d="M23,289L556,289" style="fill: none; stroke-width: 2; stroke: rgb(255, 255, 255); stroke-opacity: 0.2;"/></g></g></g><g id="shape-cee4d184-d5f6-8002-8001-8bbc286fe82f"><g id="fills-cee4d184-d5f6-8002-8001-8bbc286fe82f"><path rx="0" ry="0" d="M288.959,555.969L288.959,23"/></g><g id="strokes-cee4d184-d5f6-8002-8001-8bbc286fe82f"><g class="stroke-shape"><path rx="0" ry="0" d="M288.959,555.969L288.959,23" style="fill: none; stroke-width: 2; stroke: rgb(255, 255, 255); stroke-opacity: 0.2;"/></g></g></g><g id="shape-cee4d184-d5f6-8002-8001-8bbc214abd35"><g id="fills-cee4d184-d5f6-8002-8001-8bbc214abd35"><path rx="0" ry="0" d="M23,353L556,353"/></g><g id="strokes-cee4d184-d5f6-8002-8001-8bbc214abd35"><g class="stroke-shape"><path rx="0" ry="0" d="M23,353L556,353" style="fill: none; stroke-width: 2; stroke: rgb(255, 255, 255); stroke-opacity: 0.2;"/></g></g></g><g id="shape-cee4d184-d5f6-8002-8001-8bbc286fe830"><g id="fills-cee4d184-d5f6-8002-8001-8bbc286fe830"><path rx="0" ry="0" d="M351.955,555.899L351.955,23"/></g><g id="strokes-cee4d184-d5f6-8002-8001-8bbc286fe830"><g class="stroke-shape"><path rx="0" ry="0" d="M351.955,555.899L351.955,23" style="fill: none; stroke-width: 2; stroke: rgb(255, 255, 255); stroke-opacity: 0.2;"/></g></g></g><g id="shape-cee4d184-d5f6-8002-8001-8bbc21b5b31b"><g id="fills-cee4d184-d5f6-8002-8001-8bbc21b5b31b"><path rx="0" ry="0" d="M23,416L556,416"/></g><g id="strokes-cee4d184-d5f6-8002-8001-8bbc21b5b31b"><g class="stroke-shape"><path rx="0" ry="0" d="M23,416L556,416" style="fill: none; stroke-width: 2; stroke: rgb(255, 255, 255); stroke-opacity: 0.2;"/></g></g></g><g id="shape-cee4d184-d5f6-8002-8001-8bbc286fe831"><g id="fills-cee4d184-d5f6-8002-8001-8bbc286fe831"><path rx="0" ry="0" d="M414.955,555.899L414.955,23"/></g><g id="strokes-cee4d184-d5f6-8002-8001-8bbc286fe831"><g class="stroke-shape"><path rx="0" ry="0" d="M414.955,555.899L414.955,23" style="fill: none; stroke-width: 2; stroke: rgb(255, 255, 255); stroke-opacity: 0.2;"/></g></g></g><g id="shape-cee4d184-d5f6-8002-8001-8bbc22167cf5"><g id="fills-cee4d184-d5f6-8002-8001-8bbc22167cf5"><path rx="0" ry="0" d="M23,480L556,480"/></g><g id="strokes-cee4d184-d5f6-8002-8001-8bbc22167cf5"><g class="stroke-shape"><path rx="0" ry="0" d="M23,480L556,480" style="fill: none; stroke-width: 2; stroke: rgb(255, 255, 255); stroke-opacity: 0.2;"/></g></g></g><g id="shape-cee4d184-d5f6-8002-8001-8bbc286fe832"><g id="fills-cee4d184-d5f6-8002-8001-8bbc286fe832"><path rx="0" ry="0" d="M478.955,555.899L478.955,23"/></g><g id="strokes-cee4d184-d5f6-8002-8001-8bbc286fe832"><g class="stroke-shape"><path rx="0" ry="0" d="M478.955,555.899L478.955,23" style="fill: none; stroke-width: 2; stroke: rgb(255, 255, 255); stroke-opacity: 0.2;"/></g></g></g><g id="shape-cee4d184-d5f6-8002-8001-8bbc227fbf8b"><g id="fills-cee4d184-d5f6-8002-8001-8bbc227fbf8b"><path rx="0" ry="0" d="M38,543L541,543"/></g><g id="strokes-cee4d184-d5f6-8002-8001-8bbc227fbf8b"><g class="stroke-shape"><path rx="0" ry="0" d="M38,543L541,543" style="fill: none; stroke-width: 2; stroke: rgb(255, 255, 255); stroke-opacity: 0.2;"/></g></g></g><g id="shape-cee4d184-d5f6-8002-8001-8bbc287012a5"><g id="fills-cee4d184-d5f6-8002-8001-8bbc287012a5"><path rx="0" ry="0" d="M542,541.634L542,37.389"/></g><g id="strokes-cee4d184-d5f6-8002-8001-8bbc287012a5"><g class="stroke-shape"><path rx="0" ry="0" d="M542,541.634L542,37.389" style="fill: none; stroke-width: 2; stroke: rgb(255, 255, 255); stroke-opacity: 0.2;"/></g></g></g></g><g id="shape-cee4d184-d5f6-8002-8001-8bba7a729ad6" style="mix-blend-mode: lighten;"><defs><linearGradient id="fill-color-gradient_f77870fa-31e6-80cc-8001-8bc344b27b65_1" x1="0.5" y1="0" x2="0.5" y2="1" gradientTransform=""><stop offset="0" stop-color="#24f5ee" stop-opacity="1"/><stop offset="1" stop-color="#fe2d54" stop-opacity="1"/></linearGradient><linearGradient id="fill-color-gradient_f77870fa-31e6-80cc-8001-8bc344b27b65_0" x1="0.5" y1="0" x2="0.5" y2="1" gradientTransform=""><stop offset="0" stop-color="#fe2d54" stop-opacity="1"/><stop offset="1" stop-color="#24f5ee" stop-opacity="1"/></linearGradient><pattern patternUnits="userSpaceOnUse" x="23.000003971159458" y="23.00000397163211" height="532.9999999990687" width="533" data-loading="false" id="fill-0-f77870fa-31e6-80cc-8001-8bc344b27b65"><g><rect width="533" height="532.9999999990687" style="fill: url(&quot;#fill-color-gradient_f77870fa-31e6-80cc-8001-8bc344b27b65_1&quot;);"/><rect width="533" height="532.9999999990687" style="fill: url(&quot;#fill-color-gradient_f77870fa-31e6-80cc-8001-8bc344b27b65_0&quot;);"/></g></pattern></defs><g id="fills-cee4d184-d5f6-8002-8001-8bba7a729ad6"><rect width="533" height="532.9999999990687" x="23.000003971159458" transform="matrix(1,0,0,1,0,0)" style="opacity: 0.63;" ry="50" fill="url(#fill-0-f77870fa-31e6-80cc-8001-8bc344b27b65)" rx="50" y="23.00000397163211"/></g></g><g id="shape-cee4d184-d5f6-8002-8001-8bba9a72e743" rx="0" ry="0" style="mix-blend-mode: multiply;"><g id="shape-cee4d184-d5f6-8002-8001-8bb98da7f27d"><g id="fills-cee4d184-d5f6-8002-8001-8bb98da7f27d"><path rx="0" ry="0" d="M223,305L223,173L373,305L223,428L172,428L172,493L223,493L440,305L223,115L172,115L172,305L223,305Z" style="fill: rgb(254, 45, 84); fill-opacity: 1;"/></g></g><g id="shape-cee4d184-d5f6-8002-8001-8bb96b77dac7"><g id="fills-cee4d184-d5f6-8002-8001-8bb96b77dac7"><path rx="0" ry="0" d="M190,276L190,144L340,276L190,399L139,399L139,464L190,464L407,276L190,86L139,86L139,276L190,276Z" style="fill: rgb(36, 245, 238); fill-opacity: 1;"/></g></g></g></g></g></g></g></svg>